<svg xmlns="http://www.w3.org/2000/svg" x="0px" y="0px" width="100" height="100" viewBox="0 0 48 48">
<path d="M24,39.97c-0.896,0-1.736-0.394-2.309-1.079l-17.05-20.46c-0.434-0.523-0.653-1.173-0.621-1.83L4.02,14.65	c0-0.012,0-0.023,0.001-0.035c0.04-1.139,0.057-1.61,19.979-1.61s19.939,0.472,19.979,1.61l0.001,2.035	c0.031,0.607-0.188,1.257-0.621,1.778L26.309,38.891C25.736,39.576,24.896,39.97,24,39.97z"></path><path fill="#fff" d="M42.587,15.788L25.536,36.249c-0.8,0.96-2.273,0.96-3.073,0L5.413,15.788	C4.49,14.681,5.278,13,6.719,13h34.562C42.722,13,43.51,14.681,42.587,15.788z"></path><path d="M24,37.969c-0.894,0-1.733-0.394-2.305-1.08L4.645,16.429c-0.678-0.814-0.82-1.915-0.371-2.874S5.66,12,6.719,12h34.562	c1.059,0,1.996,0.596,2.445,1.555s0.307,2.06-0.371,2.874L26.305,36.89C25.733,37.575,24.894,37.969,24,37.969z M6.719,14	c-0.401,0-0.577,0.281-0.634,0.403c-0.057,0.121-0.161,0.436,0.097,0.744l17.051,20.461c0.261,0.313,0.593,0.36,0.768,0.36	s0.507-0.047,0.768-0.359l17.051-20.462c0.258-0.309,0.153-0.623,0.097-0.744C41.858,14.281,41.683,14,41.281,14H6.719z"></path>
</svg>
